<?xml version="1.0" standalone="no"?>
<!DOCTYPE svg PUBLIC "-//W3C//DTD SVG 20010904//EN"
 "http://www.w3.org/TR/2001/REC-SVG-20010904/DTD/svg10.dtd">
<svg version="1.0" xmlns="http://www.w3.org/2000/svg"
 width="1200.000000pt" height="1200.000000pt" viewBox="0 0 1200.000000 1200.000000"
 preserveAspectRatio="xMidYMid meet">
<metadata>
Created by potrace 1.16, written by Peter Selinger 2001-2019
</metadata>
<g transform="translate(0.000000,1200.000000) scale(0.100000,-0.100000)"
fill="#000000" stroke="none">
<path d="M4830 6005 c0 -869 2 -985 15 -985 13 0 15 116 15 985 0 869 -2 985
-15 985 -13 0 -15 -116 -15 -985z"/>
<path d="M5720 6761 c0 -216 0 -220 -23 -247 -20 -23 -32 -27 -78 -28 l-54 -1
-6 -43 c-7 -54 -4 -55 100 -51 95 5 124 22 161 95 24 47 25 57 28 272 l4 222
-66 0 -66 0 0 -219z"/>
<path d="M6848 6708 c-59 -150 -110 -281 -114 -291 -6 -16 -1 -18 57 -15 l64
3 26 65 26 65 110 3 111 3 27 -71 27 -70 64 0 64 0 -17 43 c-10 23 -60 152
-113 287 l-96 245 -65 3 -65 3 -106 -273z m209 32 c17 -47 34 -93 38 -102 6
-16 -1 -18 -74 -18 -45 0 -81 3 -81 6 0 19 76 212 81 206 3 -4 20 -45 36 -92z"/>
<path d="M8110 6691 l0 -291 60 0 60 0 0 115 c0 113 0 115 23 115 34 0 39 -7
116 -122 l71 -108 70 0 71 0 -84 124 -84 124 35 24 c51 32 76 81 76 143 0 63
-23 106 -71 137 -35 21 -51 23 -190 26 l-153 4 0 -291z m260 187 c31 -20 42
-64 26 -103 -18 -41 -42 -55 -112 -62 l-54 -6 0 98 0 98 60 -6 c33 -4 69 -12
80 -19z"/>
<path d="M2342 6927 c-8 -9 -12 -234 -14 -712 -4 -771 0 -722 -66 -828 -41
-65 -171 -117 -258 -103 -21 3 -66 8 -99 12 -99 10 -114 -16 -128 -220 l-4
-58 36 -16 c29 -13 74 -16 231 -17 187 0 198 1 267 27 147 54 248 145 313 283
82 173 90 260 90 1008 0 537 -2 607 -16 621 -13 13 -44 16 -178 16 -122 0
-166 -3 -174 -13z"/>
<path d="M2932 6932 c-9 -7 -12 -44 -10 -153 l3 -144 287 -3 288 -2 2 -818 3
-817 177 -3 c168 -2 178 -1 188 17 7 14 9 271 8 820 l-3 801 285 2 285 3 3
144 c2 109 -1 146 -10 153 -7 4 -346 8 -753 8 -407 0 -746 -4 -753 -8z"/>
<path d="M8235 5676 c-62 -29 -107 -76 -137 -141 -19 -41 -23 -67 -23 -140 1
-136 46 -219 147 -269 43 -22 66 -26 135 -26 90 0 134 13 190 56 l33 25 -26
35 c-31 39 -44 42 -83 13 -59 -44 -147 -43 -204 1 -88 70 -90 269 -2 338 56
45 141 47 199 6 32 -22 59 -16 83 18 27 39 20 51 -52 84 -71 34 -190 33 -260
0z"/>
<path d="M5490 5645 l0 -45 85 0 85 0 0 -245 0 -245 65 0 65 0 0 245 0 245 85
0 85 0 0 45 0 45 -235 0 -235 0 0 -45z"/>
<path d="M6850 5400 l0 -290 190 0 190 0 0 40 0 40 -130 0 -130 0 0 85 0 85
100 0 100 0 0 40 0 40 -100 0 -100 0 0 85 0 85 130 0 130 0 0 40 0 40 -190 0
-190 0 0 -290z"/>
<path d="M9360 5400 l0 -290 60 0 60 0 0 125 0 125 125 0 125 0 0 -125 0 -125
65 0 65 0 0 290 0 290 -65 0 -65 0 0 -125 0 -125 -125 0 -125 0 0 125 0 125
-60 0 -60 0 0 -290z"/>
</g>
</svg>
